{
    "asset" : {
        "generator" : "Khronos glTF Blender I/O v3.3.32",
        "version" : "2.0"
    },
    "scene" : 0,
    "scenes" : [
        {
            "name" : "Scene",
            "nodes" : [
                3,
                4
            ]
        }
    ],
    "nodes" : [
        {
            "name" : "earth4"
        },
        {
            "children" : [
                0
            ],
            "name" : "RootNode"
        },
        {
            "children" : [
                1
            ],
            "name" : "24632585e7144c48909cd1937efa1a28.fbx",
            "rotation" : [
                0.7071068286895752,
                0,
                0,
                0.7071067094802856
            ]
        },
        {
            "children" : [
                2
            ],
            "name" : "Sketchfab_model",
            "rotation" : [
                -0.7071068286895752,
                0,
                0,
                0.7071067094802856
            ]
        },
        {
            "mesh" : 0,
            "name" : "land",
            "rotation" : [
                0.70710688829422,
                0,
                0,
                0.7071066498756409
            ]
        }
    ],
    "materials" : [
        {
            "doubleSided": true,
            "name": "Material.004",
            "pbrMetallicRoughness": {
              "baseColorFactor": [
                0.13,		
                0.05,		
                0.8,				
                1
              ],
              "metallicFactor": 0,
              "roughnessFactor": 1
            },
            "emissiveFactor": [
              0,
              0,
              0
            ],
            "alphaMode": "OPAQUE"
          }
        
    ],
    "meshes" : [
        {
            "name" : "Mesh.001",
            "primitives" : [
                {
                    "attributes" : {
                        "POSITION" : 0,
                        "NORMAL" : 1,
                        "TEXCOORD_0" : 2
                    },
                    "indices" : 3,
                    "material" : 0
                }
            ]
        }
    ],
    "accessors" : [
        {
            "bufferView" : 0,
            "componentType" : 5126,
            "count" : 4330,
            "max" : [
                8.583353042602539,
                8.79779052734375,
                9.351238250732422
            ],
            "min" : [
                -8.742206573486328,
                -8.453768730163574,
                -8.588372230529785
            ],
            "type" : "VEC3"
        },
        {
            "bufferView" : 1,
            "componentType" : 5126,
            "count" : 4330,
            "type" : "VEC3"
        },
        {
            "bufferView" : 2,
            "componentType" : 5126,
            "count" : 4330,
            "type" : "VEC2"
        },
        {
            "bufferView" : 3,
            "componentType" : 5123,
            "count" : 5112,
            "type" : "SCALAR"
        }
    ],
    "bufferViews" : [
        {
            "buffer" : 0,
            "byteLength" : 51960,
            "byteOffset" : 0,
            "target" : 34962
        },
        {
            "buffer" : 0,
            "byteLength" : 51960,
            "byteOffset" : 51960,
            "target" : 34962
        },
        {
            "buffer" : 0,
            "byteLength" : 34640,
            "byteOffset" : 103920,
            "target" : 34962
        },
        {
            "buffer" : 0,
            "byteLength" : 10224,
            "byteOffset" : 138560,
            "target" : 34963
        }
    ],
    "buffers" : [
        {
            "byteLength" : 148784,
            "uri" : "data:application/octet-stream;base64,"
        }
    ]
}
