<svg version="1.1" id="Layer_1" xmlns="http://www.w3.org/2000/svg" xmlns:xlink="http://www.w3.org/1999/xlink" x="0px" y="0px"
	 viewBox="0 0 10 10" style="enable-background:new 0 0 10 10;" xml:space="preserve">
<path d="M5,0C2.24,0,0,2.24,0,5s2.24,5,5,5s5-2.24,5-5S7.76,0,5,0z M5.7,1.87c0.49,0,0.81,0.23,0.74,0.69
	C6.38,3.04,6.01,3.26,5.52,3.26c-0.5,0-0.77-0.22-0.71-0.69C4.87,2.09,5.21,1.87,5.7,1.87z M6.52,7.7H2.94l0.23-1.22h1.15l0.32-1.65
	h-1l0.23-1.22h1.58c0.44,0,0.67,0.23,0.57,0.68L5.59,6.48h1.15L6.52,7.7z"/>
</svg>
